# xmcd
#
# Track frame offsets: 
#        150
#        15135
#        36160
#        51828
#        71552
#        81006
#        96467
#        111606
#        125411
#        144648
#        160193
#        167740
#        182121
#        195507
#
# Disc length: 2788 seconds
#
# Revision: 0
# Processed by: cddbd v1.5.2PL0 Copyright (c) Steve Scherf et al.
# Submitted via: ExactAudioCopy v0.99pb5
#
DISCID=be0ae20e
DTITLE=Norma Valles - Every Time We Say Goodbye
DYEAR=2005
DGENRE=Easy Listening
TTITLE0=Every Time We Say Goodbye
TTITLE1=The Nearness of You
TTITLE2=As Time Goes By
TTITLE3=My Funny Valentine
TTITLE4=Anything Goes
TTITLE5=Stormy Weather
TTITLE6=Summertime
TTITLE7=It Had To Be You
TTITLE8=Sabor A Mi
TTITLE9=Smoke Gets In Your Eyes
TTITLE10=It's De-Lovely
TTITLE11=When I Fall In Love
TTITLE12=Misty
TTITLE13=I'm Always True to You In My Fashion
EXTD=
EXTT0=
EXTT1=
EXTT2=
EXTT3=
EXTT4=
EXTT5=
EXTT6=
EXTT7=
EXTT8=
EXTT9=
EXTT10=
EXTT11=
EXTT12=
EXTT13=
PLAYORDER=
